<?xml version="1.0" standalone="no"?>
<!DOCTYPE svg PUBLIC "-//W3C//DTD SVG 20010904//EN"
 "http://www.w3.org/TR/2001/REC-SVG-20010904/DTD/svg10.dtd">
<svg version="1.0" xmlns="http://www.w3.org/2000/svg"
 width="500.000000pt" height="500.000000pt" viewBox="0 0 500.000000 500.000000"
 preserveAspectRatio="xMidYMid meet">

<g transform="translate(0.000000,500.000000) scale(0.100000,-0.100000)"
fill="#000000" stroke="none">
<path d="M464 4441 c-2 -2 -4 -346 -4 -763 l0 -758 155 0 155 0 0 604 0 604
23 6 c29 8 3401 8 3421 0 14 -5 16 -73 16 -610 l0 -604 155 0 155 0 -2 761 -3
761 -2033 1 c-1119 1 -2036 0 -2038 -2z"/>
<path d="M1184 3541 c-2 -2 -4 -489 -4 -1082 l0 -1077 58 -5 c31 -2 419 -5
862 -6 689 -1 818 1 895 14 576 100 864 406 915 973 28 311 -66 655 -234 850
-144 168 -316 259 -586 313 -96 18 -142 20 -543 20 l-437 1 -1 -799 -1 -798
151 -3 151 -3 0 646 0 645 26 6 c48 12 514 -3 606 -20 288 -52 457 -205 529
-481 33 -124 38 -368 10 -500 -53 -260 -201 -420 -466 -504 -51 -17 -130 -35
-176 -41 -51 -6 -350 -10 -766 -10 l-683 0 0 933 0 932 -151 0 c-83 0 -152 -2
-155 -4z"/>
<path d="M340 2652 c-6 -2 -10 -63 -10 -153 l0 -149 290 0 290 0 0 150 c0 113
-3 150 -12 150 -7 0 -133 1 -281 2 -147 2 -272 2 -277 0z"/>
<path d="M4093 2645 c-2 -6 -2 -76 -1 -155 l3 -145 35 1 c19 1 149 2 288 3
l253 1 -3 153 -3 152 -284 0 c-188 0 -285 -4 -288 -10z"/>
<path d="M469 2079 c-5 -3 -8 -307 -7 -765 l3 -759 2035 0 2035 0 3 763 c1
419 -1 762 -5 763 -5 0 -74 1 -155 2 l-148 2 -2 -610 -3 -610 -1725 0 -1725 0
-3 611 -2 610 -146 0 c-80 -1 -150 -4 -155 -7z"/>
</g>
</svg>
